# Blender v2.79 (sub 0) OBJ File: ''
# www.blender.org
mtllib floor.mtl
o Circle
v 0.000000 -3.389385 -8.924722
v -1.741127 -3.389385 -8.753236
v -3.415343 -3.389385 -8.245367
v -4.958310 -3.389385 -7.420635
v -6.310731 -3.389385 -6.310731
v -7.420635 -3.389385 -4.958309
v -8.245367 -3.389385 -3.415343
v -8.753236 -3.389385 -1.741127
v -8.924722 -3.389385 -0.000001
v -8.753236 -3.389385 1.741126
v -8.245368 -3.389385 3.415342
v -7.420635 -3.389385 4.958309
v -6.310731 -3.389385 6.310731
v -4.958309 -3.389385 7.420635
v -3.415342 -3.389385 8.245369
v -1.741125 -3.389385 8.753236
v 0.000003 -3.389385 8.924722
v 1.741130 -3.389385 8.753235
v 3.415347 -3.389385 8.245366
v 4.958314 -3.389385 7.420632
v 6.310735 -3.389385 6.310728
v 7.420639 -3.389385 4.958304
v 8.245371 -3.389385 3.415336
v 8.753237 -3.389385 1.741119
v 8.924722 -3.389385 -0.000009
v 8.753234 -3.389385 -1.741136
v 8.245364 -3.389385 -3.415352
v 7.420629 -3.389385 -4.958319
v 6.310723 -3.389385 -6.310739
v 4.958300 -3.389385 -7.420642
v 3.415331 -3.389385 -8.245373
v 1.741113 -3.389385 -8.753238
vt 0.547645 0.016250
vt 0.983749 0.547646
vt 0.452355 0.983747
vt 0.358896 0.965157
vt 0.270859 0.928691
vt 0.191628 0.875751
vt 0.124248 0.808370
vt 0.071307 0.729140
vt 0.034841 0.641104
vt 0.016251 0.547645
vt 0.016250 0.452355
vt 0.034840 0.358897
vt 0.071306 0.270860
vt 0.124246 0.191629
vt 0.191626 0.124248
vt 0.270857 0.071307
vt 0.358894 0.034841
vt 0.452354 0.016250
vt 0.641105 0.034841
vt 0.729142 0.071307
vt 0.808373 0.124248
vt 0.875753 0.191628
vt 0.928694 0.270859
vt 0.965160 0.358896
vt 0.983750 0.452355
vt 0.965159 0.641104
vt 0.928693 0.729140
vt 0.875752 0.808371
vt 0.808372 0.875751
vt 0.729141 0.928692
vt 0.641104 0.965157
vt 0.547644 0.983747
vn 0.0000 1.0000 0.0000
usemtl None
s off
f 17/1/1 25/2/1 1/3/1
f 1/3/1 2/4/1 3/5/1
f 3/5/1 4/6/1 5/7/1
f 5/7/1 6/8/1 7/9/1
f 7/9/1 8/10/1 9/11/1
f 9/11/1 10/12/1 11/13/1
f 11/13/1 12/14/1 13/15/1
f 13/15/1 14/16/1 15/17/1
f 15/17/1 16/18/1 13/15/1
f 17/1/1 18/19/1 19/20/1
f 19/20/1 20/21/1 17/1/1
f 21/22/1 22/23/1 23/24/1
f 23/24/1 24/25/1 21/22/1
f 25/2/1 26/26/1 27/27/1
f 27/27/1 28/28/1 25/2/1
f 29/29/1 30/30/1 31/31/1
f 31/31/1 32/32/1 29/29/1
f 1/3/1 3/5/1 5/7/1
f 5/7/1 7/9/1 1/3/1
f 9/11/1 11/13/1 13/15/1
f 13/15/1 16/18/1 17/1/1
f 17/1/1 20/21/1 21/22/1
f 21/22/1 24/25/1 25/2/1
f 25/2/1 28/28/1 29/29/1
f 29/29/1 32/32/1 1/3/1
f 1/3/1 7/9/1 9/11/1
f 9/11/1 13/15/1 1/3/1
f 17/1/1 21/22/1 25/2/1
f 25/2/1 29/29/1 1/3/1
f 1/3/1 13/15/1 17/1/1
